<svg width="1200" height="630" viewBox="0 0 1200 630" fill="none" xmlns="http://www.w3.org/2000/svg">
  <defs>
    <linearGradient id="bg" x1="120" y1="40" x2="1080" y2="590" gradientUnits="userSpaceOnUse">
      <stop stop-color="#0B1220"/>
      <stop offset="1" stop-color="#111827"/>
    </linearGradient>
    <linearGradient id="accent" x1="212" y1="146" x2="956" y2="520" gradientUnits="userSpaceOnUse">
      <stop stop-color="#F59E0B"/>
      <stop offset="0.5" stop-color="#FB7185"/>
      <stop offset="1" stop-color="#38BDF8"/>
    </linearGradient>
    <filter id="blur" x="700" y="8" width="470" height="470" filterUnits="userSpaceOnUse" color-interpolation-filters="sRGB">
      <feGaussianBlur stdDeviation="55"/>
    </filter>
  </defs>
  <rect width="1200" height="630" rx="32" fill="url(#bg)"/>
  <rect x="44" y="44" width="1112" height="542" rx="28" stroke="rgba(255,255,255,0.12)" stroke-width="2"/>
  <g filter="url(#blur)" opacity="0.75">
    <circle cx="935" cy="243" r="125" fill="#FB7185"/>
    <circle cx="820" cy="184" r="78" fill="#F59E0B"/>
    <circle cx="1022" cy="328" r="94" fill="#38BDF8"/>
  </g>
  <path d="M131 501C252 395 352 317 514 270C642 233 774 209 944 196" stroke="url(#accent)" stroke-width="18" stroke-linecap="round" opacity="0.95"/>
  <circle cx="948" cy="196" r="14" fill="#F8FAFC"/>
  <rect x="118" y="114" width="198" height="44" rx="22" fill="rgba(255,255,255,0.08)"/>
  <text x="148" y="142" fill="#F8FAFC" font-family="Inter, Arial, sans-serif" font-size="24" font-weight="600" letter-spacing="0.08em">
    SOFTWARE ENGINEER
  </text>
  <text x="118" y="278" fill="#F8FAFC" font-family="Georgia, 'Times New Roman', serif" font-size="86" font-weight="700">
    Jeheskiel
  </text>
  <text x="118" y="362" fill="#F8FAFC" font-family="Georgia, 'Times New Roman', serif" font-size="86" font-weight="700">
    Sunloy
  </text>
  <text x="118" y="430" fill="#CBD5E1" font-family="Inter, Arial, sans-serif" font-size="34" font-weight="500">
    Building web and mobile products from Indonesia.
  </text>
  <text x="118" y="499" fill="#94A3B8" font-family="Inter, Arial, sans-serif" font-size="28" font-weight="500">
    Projects, articles, experience, and contact
  </text>
  <text x="118" y="552" fill="#F8FAFC" font-family="Inter, Arial, sans-serif" font-size="26" font-weight="700">
    jeheskielsunloy.com
  </text>
</svg>
