<?xml version="1.0" encoding="UTF-8"?>
<!DOCTYPE svg PUBLIC "-//W3C//DTD SVG 1.1//EN" "http://www.w3.org/Graphics/SVG/1.1/DTD/svg11.dtd">
<!-- Creator: CorelDRAW X7 -->
<svg xmlns="http://www.w3.org/2000/svg" xml:space="preserve" width="100%" height="100%"
    version="1.1"
    style="shape-rendering:geometricPrecision; text-rendering:geometricPrecision; image-rendering:optimizeQuality; fill-rule:evenodd; clip-rule:evenodd"
    viewBox="0 0 14000 8500"
    xmlns:xlink="http://www.w3.org/1999/xlink">
 <defs>
  <style type="text/css">
   <![CDATA[
    .fil3 {fill:#F6F8FB}
    .fil1 {fill:#E63339}
    .fil18 {fill:#EFF2F2}
    .fil5 {fill:#EAEEF0}
    .fil8 {fill:#E0E6E9}
    .fil12 {fill:#DBE3E8}
    .fil7 {fill:#DBE1E6}
    .fil11 {fill:#D6DCE1}
    .fil9 {fill:#D2D7D9}
    .fil14 {fill:#CDD5D8}
    .fil17 {fill:#C4CED2}
    .fil15 {fill:#C3C3C4}
    .fil21 {fill:#8D3032}
    .fil22 {fill:#B4C2C9}
    .fil6 {fill:#AEBBC2}
    .fil4 {fill:#B0AFB0}
    .fil19 {fill:#A8B5BB}
    .fil16 {fill:#9CACB2}
    .fil10 {fill:#97ABB7}
    .fil13 {fill:#8A9FA6}
    .fil20 {fill:#838384}
    .fil0 {fill:#2B2A2A}
    .fil2 {fill:#295896}
   ]]>
  </style>
 </defs>
 <g id="Layer_x0020_1">
  <metadata id="CorelCorpID_0Corel-Layer"/>
  <g id="_1960411832192">
   <path class="fil0" d="M6532 6607l66 -8c18,22 24,62 71,37 28,-16 33,-58 34,-91 -52,22 -90,39 -139,-6 -32,-30 -52,-78 -37,-141 24,-109 169,-126 225,-41 47,69 43,231 -1,295 -57,81 -213,77 -219,-45zm-122 -303c10,7 11,-3 10,45 -1,72 5,318 -4,351l-74 2c-12,-48 -2,-208 -4,-269l-10 -3c-27,14 -45,37 -83,39l0 -65c27,-13 47,-24 68,-41 27,-22 26,-33 46,-60l51 1zm519 138c76,-6 110,-9 145,44 30,46 30,110 3,156 -25,41 -62,70 -136,62 -59,-6 -100,-42 -105,-106l72 -8c35,96 121,53 110,-36 -4,-37 -29,-63 -70,-55 -52,9 -7,29 -100,20 -6,-23 24,-178 33,-205 30,-6 174,-8 200,2l0 64 -140 4 -12 58zm289 26c44,-28 83,-40 134,-1 33,25 54,77 43,139 -19,109 -158,133 -223,52 -48,-61 -52,-233 -1,-301 58,-79 206,-75 218,44l-69 10c-15,-26 -28,-62 -70,-36 -23,14 -36,54 -32,93zm-2341 -2433c9,-16 -3,-7 15,-14l11 20c0,38 111,203 115,252 -44,35 -227,145 -295,152 -13,-14 -110,-170 -112,-194 33,-14 58,-19 89,-35 65,-33 162,-114 177,-181zm-180 96c-16,19 -90,49 -109,52 -25,4 -24,7 -29,-16 -12,-56 51,-99 92,-114 18,14 36,48 46,78zm-51 336c-6,5 1,2 -12,7l-42 9c-20,3 -36,6 -56,8 -42,3 -88,3 -131,0 -61,-5 -60,-42 -122,-136 -180,-272 159,-583 391,-547 58,9 141,62 158,100 24,53 -46,150 -73,174 -23,-18 -51,-82 -62,-111 -111,2 -237,99 -205,222 13,50 139,224 154,274zm1974 -785c10,-20 -4,-8 16,-16l7 20c-2,39 52,230 64,281l406 1687c5,21 12,46 17,68 7,36 -4,39 -24,59 -20,20 -64,73 -87,86 -39,-77 -77,-164 -115,-245 -73,-156 -801,-1703 -806,-1737 116,3 223,-5 320,-42 76,-29 179,-99 202,-161zm-2203 882c106,-3 164,0 263,-26 209,-56 381,-177 541,-306 125,-101 184,-169 296,-269 190,-171 561,-584 776,-636 293,-71 414,254 176,410 -149,98 -300,74 -487,66 5,33 36,90 52,123l371 795c69,151 142,306 212,455 31,65 198,412 209,451 -20,27 -145,120 -177,147 -170,143 -348,300 -530,433 -196,144 -443,284 -706,251 -62,-8 -204,-46 -244,-74 -22,-16 -31,-96 -38,-125 -113,-469 -374,-1067 -602,-1489 -19,-35 -106,-178 -112,-206zm2341 -1035l11 -18 14 19c18,52 121,106 184,136 98,46 122,58 157,161 55,157 218,423 251,107 109,10 163,160 183,271 18,103 15,328 68,387 61,2 80,-62 114,-87 116,110 50,257 59,408 44,-22 69,-122 81,-180 41,-211 -34,-437 -156,-592 -43,-55 -78,-90 -125,-133 -33,-30 -26,-48 -39,-94 -25,-91 -70,-187 -149,-235 -84,-51 -127,-25 -218,-24 -65,-73 -79,-153 -174,-228 -89,-71 -181,-84 -313,-85 -2,-61 67,-175 -60,-187 -66,-7 -171,31 -224,55 -63,29 -34,17 -101,1 -146,-35 -226,76 -293,108 -18,-97 52,-164 108,-197 105,-62 147,-27 270,-37 124,-10 112,-73 191,-115 68,-35 169,-48 250,-19 163,59 185,189 247,360 45,126 215,179 233,9 7,-74 -18,-78 -31,-119 107,-11 187,79 234,136 68,84 86,133 109,260 19,101 41,198 76,289 21,54 97,208 137,225 29,-203 -91,-563 -164,-710 -199,-401 -517,-625 -966,-552 -51,9 -103,37 -168,48 -129,24 -284,15 -418,9 -313,-13 -133,115 -107,179 -87,116 -321,96 -442,155 -136,67 -194,167 -274,278 -15,21 1,8 -21,19 -17,-32 -50,-66 -51,-109 -1,-50 30,-89 31,-117 -263,-57 -377,336 -536,345 21,-198 167,-402 336,-456 100,-31 217,-43 315,-83 185,-75 28,-162 -10,-212 16,-10 179,-41 334,-124 101,-54 192,-116 313,-143 276,-63 491,72 585,65 52,-3 151,-16 156,-67 -130,-10 -92,-18 -180,-67 -52,-29 -112,-49 -175,-65 -322,-82 -698,6 -966,185 -39,26 -105,85 -139,102 -5,-75 3,-208 -106,-143 -59,35 -81,82 -107,163 -37,115 -78,343 -183,364 -24,-35 -22,-69 -60,-102 -97,-83 -195,138 -222,211 -37,100 -73,118 -151,167 -32,20 -63,40 -90,66 -33,31 -39,50 -68,88 -25,-49 -37,-150 -30,-216 7,-74 34,-135 67,-186 137,-211 473,-343 539,-469 40,-76 -6,-135 -75,-147 -94,-16 -136,42 -191,60 37,-168 185,-219 371,-242 193,-23 391,-25 590,-26 71,0 187,-27 264,-38 386,-57 681,-58 1004,160 53,36 40,28 116,42 189,34 387,136 509,253 94,91 189,208 258,355 34,71 62,138 88,218 15,46 55,215 68,238 33,-57 18,-450 4,-533 -30,-170 -101,-275 -199,-359 -173,-148 -725,-341 -752,-369 43,-27 116,-64 128,-105 38,-137 -506,-33 -568,-28 9,-31 41,-60 25,-97 -39,-55 -300,25 -358,37 -113,24 -270,23 -347,-53 5,-41 75,-99 112,-122 51,-32 112,-48 182,-54 70,-5 144,-7 210,-24 87,-21 96,-46 151,-84 63,9 187,86 263,36 88,-57 -95,-150 -106,-173 168,-52 363,49 522,73 103,15 170,7 253,59 51,33 122,109 93,207 -21,69 -99,111 0,223 146,164 342,257 480,445 202,275 147,709 58,1025 -10,34 -30,88 -35,121 -11,68 13,366 17,443 5,93 11,202 0,294 -5,47 -10,92 -18,139 -7,45 -21,85 -27,129 76,-23 395,-339 354,-457 -23,-66 -133,-50 -208,-44 -19,-213 202,-562 268,-750 156,-442 -90,-707 -112,-794 56,16 221,83 212,-31 -5,-66 -83,-159 -116,-197 -41,-48 -1,-113 -66,-247 -56,-113 -100,-111 -148,-163 145,-10 275,61 322,158 38,79 21,178 35,204 1,4 102,101 117,118 297,343 -67,559 25,708 107,24 153,-156 197,-207 17,41 4,161 -8,207 -16,62 -36,108 -66,156 -65,103 -141,138 -201,244 -25,43 -53,106 -57,166 -5,68 22,137 80,145 116,15 158,-154 188,-257 36,62 58,201 48,290 -31,271 -227,461 -432,612 -36,27 -66,40 -109,66 -37,21 -69,44 -104,70 -106,81 -492,439 -504,540 59,23 225,47 299,48 114,1 196,-20 241,-107 58,-113 48,-357 315,-388 -1,82 -11,150 5,231 51,257 259,143 329,-77 91,-285 -48,-429 -15,-621 9,-52 33,-143 75,-154 29,54 49,238 125,228 61,-8 93,-178 101,-253 12,-130 2,-138 -15,-247 -11,-68 81,-223 -93,-315 10,-38 36,-78 50,-123 14,-47 22,-89 22,-144 0,-142 -40,-153 -76,-258 -38,-110 -60,-143 -37,-273 26,-144 0,-162 -28,-286 30,14 88,74 108,101 96,134 27,277 154,459 85,122 128,97 136,275 4,87 -11,108 -30,177 -9,34 29,123 41,158 34,103 32,66 -11,147 -24,46 -48,99 -36,165 24,143 54,198 -39,326 -13,19 -184,269 -66,270 104,0 178,-170 217,-191 28,56 55,157 18,222 -28,49 -97,96 -139,137 -110,108 -129,192 -190,364 -188,536 -297,300 -656,449 -332,138 -341,362 -592,514 -54,33 -131,63 -196,81 -156,42 -282,-65 -335,-206 -20,-55 -28,-119 -22,-178 0,-3 4,-24 5,-27 2,-9 2,-7 5,-15l4 -9c23,13 38,35 57,53 219,212 450,72 376,-129 -36,-98 -130,-158 -241,-186 -141,-36 -249,-15 -390,-5 -1,-1 -2,-3 -2,-4l-5 -10c-16,-40 -35,-122 -37,-162 178,12 273,-28 369,-125 133,-134 212,-427 -72,-445 -103,-6 -129,40 -202,-28 -104,-97 -117,-317 16,-327 -1,44 2,76 47,80 95,8 150,-103 61,-220 -51,-68 -131,-126 -207,-171 -26,-15 -52,-27 -74,-44 -7,-155 -13,-191 -162,-303 -175,-133 -150,-154 -149,-299zm-2905 614c0,68 -5,145 6,211 6,41 -4,85 6,125l42 307c28,144 67,273 114,413 8,24 15,36 24,60 32,94 53,120 81,190 39,99 179,349 258,446 7,9 14,17 18,23l136 177c30,41 136,143 173,181 77,81 146,145 228,206 15,11 32,26 50,40 34,25 66,53 102,78l325 198c39,20 80,42 120,61l445 165 213 53c102,19 204,42 308,44 31,1 50,9 84,9 36,-1 58,7 84,7l265 0c30,0 47,-8 78,-8l152 -14c27,-4 55,-5 82,-9 178,-26 427,-80 589,-151l385 -173c93,-45 188,-111 273,-166 16,-10 12,-8 24,-18l77 -55c138,-103 294,-243 404,-371l100 -117c8,-10 16,-16 24,-25l110 -147c15,-21 22,-34 36,-55l100 -158c12,-23 21,-33 33,-58 21,-40 40,-74 61,-114 12,-24 14,-37 25,-59 115,-228 180,-479 227,-729 10,-57 29,-168 30,-224l8 -415c0,-30 -9,-48 -8,-79 1,-105 -70,-450 -92,-524 -72,-235 -158,-472 -289,-679l-100 -163c-9,-14 -8,-13 -18,-25l-154 -201c-11,-13 -8,-15 -20,-28 -14,-17 -28,-27 -43,-46 -20,-29 -202,-216 -238,-243l-376 -286c-38,-22 -71,-47 -112,-68l-171 -93c-23,-12 -40,-18 -62,-27 -22,-9 -37,-20 -62,-30l-88 -37c-235,-97 -486,-159 -740,-192l-156 -16c-23,-4 -64,-1 -89,-1l-205 -2c-42,7 -89,-1 -132,2l-78 8c-20,0 -21,0 -39,4 -17,3 -25,2 -44,4 -24,3 -13,4 -38,7 -19,2 -22,2 -40,6 -24,5 -54,7 -79,10 -50,7 -101,22 -150,31 -156,30 -398,115 -535,181l-407 217c-70,49 -146,96 -210,151 -15,13 -34,25 -50,40l-97 83c-16,16 -33,26 -50,40 -60,55 -125,121 -173,182 -14,19 -30,28 -45,45l-315 442 -81 148c-70,130 -139,297 -183,441l-29 103c-4,14 -6,23 -10,40 -22,98 -51,196 -61,296 -6,73 -24,176 -24,247l-7 84z"/>
   <path class="fil1" d="M6783 3530c-12,-1 -9,2 -9,-8 -8,5 -8,3 -16,7 -1,145 -26,166 149,299 149,112 155,148 162,303 22,17 48,29 74,44 76,45 156,103 207,171 89,117 34,228 -61,220 -45,-4 -48,-36 -47,-80 -133,10 -120,230 -16,327 73,68 99,22 202,28 284,18 205,311 72,445 -96,97 -191,137 -369,125 2,40 21,122 37,162l5 10c0,1 1,3 2,4 141,-10 249,-31 390,5 111,28 205,88 241,186 74,201 -157,341 -376,129 -19,-18 -34,-40 -57,-53l-4 9c-3,8 -3,6 -5,15 -1,3 -5,24 -5,27 -6,59 2,123 22,178 53,141 179,248 335,206 65,-18 142,-48 196,-81 251,-152 260,-376 592,-514 359,-149 468,87 656,-449 61,-172 80,-256 190,-364 42,-41 111,-88 139,-137 37,-65 10,-166 -18,-222 -39,21 -113,191 -217,191 -118,-1 53,-251 66,-270 93,-128 63,-183 39,-326 -12,-66 12,-119 36,-165 43,-81 45,-44 11,-147 -12,-35 -50,-124 -41,-158 19,-69 34,-90 30,-177 -8,-178 -51,-153 -136,-275 -127,-182 -58,-325 -154,-459 -20,-27 -78,-87 -108,-101 28,124 54,142 28,286 -23,130 -1,163 37,273 36,105 76,116 76,258 0,55 -8,97 -22,144 -14,45 -40,85 -50,123 174,92 82,247 93,315 17,109 27,117 15,247 -8,75 -40,245 -101,253 -76,10 -96,-174 -125,-228 -42,11 -66,102 -75,154 -33,192 106,336 15,621 -70,220 -278,334 -329,77 -16,-81 -6,-149 -5,-231 -267,31 -257,275 -315,388 -45,87 -127,108 -241,107 -74,-1 -240,-25 -299,-48 12,-101 398,-459 504,-540 35,-26 67,-49 104,-70 43,-26 73,-39 109,-66 205,-151 401,-341 432,-612 10,-89 -12,-228 -48,-290 -30,103 -72,272 -188,257 -58,-8 -85,-77 -80,-145 4,-60 32,-123 57,-166 60,-106 136,-141 201,-244 30,-48 50,-94 66,-156 12,-46 25,-166 8,-207 -44,51 -90,231 -197,207 -92,-149 272,-365 -25,-708 -15,-17 -116,-114 -117,-118 -14,-26 3,-125 -35,-204 -47,-97 -177,-168 -322,-158 48,52 92,50 148,163 65,134 25,199 66,247 33,38 111,131 116,197 9,114 -156,47 -212,31 22,87 268,352 112,794 -66,188 -287,537 -268,750 75,-6 185,-22 208,44 41,118 -278,434 -354,457 6,-44 20,-84 27,-129 8,-47 13,-92 18,-139 11,-92 5,-201 0,-294 -4,-77 -28,-375 -17,-443 5,-33 25,-87 35,-121 89,-316 144,-750 -58,-1025 -138,-188 -334,-281 -480,-445 -99,-112 -21,-154 0,-223 29,-98 -42,-174 -93,-207 -83,-52 -150,-44 -253,-59 -159,-24 -354,-125 -522,-73 11,23 194,116 106,173 -76,50 -200,-27 -263,-36 -55,38 -64,63 -151,84 -66,17 -140,19 -210,24 -70,6 -131,22 -182,54 -37,23 -107,81 -112,122 77,76 234,77 347,53 58,-12 319,-92 358,-37 16,37 -16,66 -25,97 62,-5 606,-109 568,28 -12,41 -85,78 -128,105 27,28 579,221 752,369 98,84 169,189 199,359 14,83 29,476 -4,533 -13,-23 -53,-192 -68,-238 -26,-80 -54,-147 -88,-218 -69,-147 -164,-264 -258,-355 -122,-117 -320,-219 -509,-253 -76,-14 -63,-6 -116,-42 -323,-218 -618,-217 -1004,-160 -77,11 -193,38 -264,38 -199,1 -397,3 -590,26 -186,23 -334,74 -371,242 55,-18 97,-76 191,-60 69,12 115,71 75,147 -66,126 -402,258 -539,469 -33,51 -60,112 -67,186 -7,66 5,167 30,216 29,-38 35,-57 68,-88 27,-26 58,-46 90,-66 78,-49 114,-67 151,-167 27,-73 125,-294 222,-211 38,33 36,67 60,102 105,-21 146,-249 183,-364 26,-81 48,-128 107,-163 109,-65 101,68 106,143 34,-17 100,-76 139,-102 268,-179 644,-267 966,-185 63,16 123,36 175,65 88,49 50,57 180,67 -5,51 -104,64 -156,67 -94,7 -309,-128 -585,-65 -121,27 -212,89 -313,143 -155,83 -318,114 -334,124 38,50 195,137 10,212 -98,40 -215,52 -315,83 -169,54 -315,258 -336,456 159,-9 273,-402 536,-345 -1,28 -32,67 -31,117 1,43 34,77 51,109 22,-11 6,2 21,-19 80,-111 138,-211 274,-278 121,-59 355,-39 442,-155 -26,-64 -206,-192 107,-179 134,6 289,15 418,-9 65,-11 117,-39 168,-48 449,-73 767,151 966,552 73,147 193,507 164,710 -40,-17 -116,-171 -137,-225 -35,-91 -57,-188 -76,-289 -23,-127 -41,-176 -109,-260 -47,-57 -127,-147 -234,-136 13,41 38,45 31,119 -18,170 -188,117 -233,-9 -62,-171 -84,-301 -247,-360 -81,-29 -182,-16 -250,19 -79,42 -67,105 -191,115 -123,10 -165,-25 -270,37 -56,33 -126,100 -108,197 67,-32 147,-143 293,-108 67,16 38,28 101,-1 53,-24 158,-62 224,-55 127,12 58,126 60,187 132,1 224,14 313,85 95,75 109,155 174,228 91,-1 134,-27 218,24 79,48 124,144 149,235 13,46 6,64 39,94 47,43 82,78 125,133 122,155 197,381 156,592 -12,58 -37,158 -81,180 -9,-151 57,-298 -59,-408 -34,25 -53,89 -114,87 -53,-59 -50,-284 -68,-387 -20,-111 -74,-261 -183,-271 -33,316 -196,50 -251,-107 -35,-103 -59,-115 -157,-161 -63,-30 -166,-84 -184,-136z"/>
   <path class="fil2" d="M10762 5723l11 -37c29,-43 81,-13 127,-37 16,-8 25,-21 42,-27 -17,83 -105,101 -180,101zm-49 -1c-20,-1 -17,-7 -47,-8 14,-31 6,-73 79,-86 -23,43 -28,33 -32,94zm170 -126c-3,-4 -6,2 -5,-22 1,-22 4,-15 5,-18 14,15 21,23 0,40zm-390 14l31 2c19,-38 -9,-67 95,-86 -12,27 -74,34 -64,108 4,29 12,26 41,25 13,-26 8,-102 109,-79l-8 5c-1,1 -6,4 -8,5 -18,10 -26,10 -41,30 -18,26 -20,44 -20,83 -45,-4 -108,-34 -138,-73 -15,-21 -17,-58 -11,-90 5,-31 25,-46 52,-53 3,34 -5,-10 -34,48 -12,25 -18,48 -4,75zm-96 -271c-47,-36 -58,-66 -53,-136 30,17 27,73 68,84 11,4 26,4 39,3 66,-4 3,-37 75,-1 -4,20 -7,29 -19,40 -23,21 -75,37 -110,10zm394 -88c-24,-27 -48,-34 -64,-56 31,-2 72,17 88,36l-24 20zm-345 -102c12,4 13,-10 5,40 -5,-6 -5,8 -8,-18 -1,-12 2,-15 3,-22zm-62 0c33,13 0,16 45,42 18,10 6,0 19,15 -34,11 -25,7 -40,-17 -13,-21 -16,-10 -24,-40zm456 -2c-40,2 -31,3 -76,-7 -18,-4 -18,-4 -25,-16 37,-1 98,-33 101,23zm-480 -30c19,6 1,-15 17,12l5 14c0,-1 1,4 2,6 -25,-11 -15,-5 -24,-32zm0 0c-17,-6 -12,-2 -18,-20 17,8 13,4 18,20zm86 32c-11,-9 -3,0 -9,-10l-6 -14c-25,-73 -22,-22 -27,-62 25,10 14,13 27,36 15,26 25,21 15,50zm329 -87c11,-15 71,-40 96,-40l23 47c-51,6 -52,-5 -119,-7zm-258 -16c6,-11 8,-13 14,-26l-21 -12c-8,-3 -7,-1 -16,-6 14,-7 75,6 90,11 70,23 68,78 -4,94 1,-46 38,-56 -63,-61zm274 -55c6,-32 21,-30 41,-46 25,-19 2,-10 27,-17 15,13 9,12 21,23 -20,17 -67,30 -89,40zm-260 -55c13,-14 36,-24 48,-31 14,19 22,40 32,59l-17 19c-37,-23 -39,-13 -63,-47zm118 -72c25,-1 38,-4 57,-8 0,43 -8,59 -8,104 -38,-7 -54,-48 -51,-80 1,-5 2,-7 2,-16zm104 71c2,-18 17,-67 29,-82 0,-1 8,-9 8,-10 8,-9 3,-2 9,-11 10,6 11,8 20,13 8,4 7,3 13,7 -15,17 -29,27 -40,42 -16,19 -15,32 -39,41zm-544 -196c9,-14 27,-24 43,-42l13 -13 0 18c-16,12 -25,19 -37,36l-19 1zm56 -55c-2,-17 5,-58 11,-72 10,13 5,-20 8,18 2,18 -9,19 -9,54l-10 0zm-56 55c-5,8 5,6 -29,16 -90,24 -74,-14 -103,24 -6,8 -11,18 -16,26l-34 56c-1,1 -2,3 -3,4l-57 92c-41,79 -64,193 -7,259 23,26 57,58 88,75l106 56c16,8 33,19 47,31 65,60 -4,132 -61,132 -3,-32 5,-46 -18,-66 -17,-15 -33,-23 -58,-17 -89,21 -47,68 -42,97 -32,22 -56,20 -89,3 2,-9 62,-92 -3,-120 -47,-20 -105,14 -89,123 4,28 24,67 46,84 35,27 188,15 240,-2 23,-8 82,-31 106,-30 102,5 130,81 181,86l21 4 -7 -24c-2,-25 -6,-8 13,-17l0 28c80,74 96,80 215,106 92,20 210,20 274,-30 71,-55 75,-150 44,-204 -1,-1 -2,-3 -3,-4 0,-1 -1,-3 -2,-4 -1,-1 -2,-2 -2,-3 -39,-57 -163,-74 -160,17 2,35 10,42 32,54 -15,10 -41,-11 -59,-23l-141 -93c-53,-29 -147,-63 -192,-2 -31,43 -18,148 -20,154 -45,-66 10,-226 90,-226 13,0 26,7 41,11 18,5 30,5 52,2 4,-39 -9,-19 -5,-53 64,-8 69,29 115,30 2,-31 -11,-26 -15,-53 -4,-35 9,-36 7,-62 -33,-20 -132,-37 -205,-150 -12,-19 -30,-75 10,-80 -44,106 111,144 210,215 15,11 21,19 35,30 -16,15 -29,20 -30,48 0,15 10,43 22,56 22,8 67,8 87,-3 30,-15 22,-37 22,-72 103,0 104,-62 70,-124 108,-19 53,-100 50,-112 10,-7 14,-8 22,-14 7,-5 13,-11 22,-17 0,-28 4,-43 -12,-63 -12,-15 -29,-19 -40,-30 76,-35 56,-140 -50,-142 0,-111 -71,-128 -146,-99 -25,9 -31,24 -46,42 -27,-24 -48,-58 -106,-43 -34,8 -60,62 -63,99 -15,-1 -99,-29 -116,38 -19,77 8,102 14,136 -22,-1 -55,5 -73,10l-59 25c-13,6 -18,9 -28,14 -11,5 -17,6 -30,12 -28,12 -29,22 -68,16 -12,-39 28,-57 5,-90 -53,-21 -111,9 -137,36 -55,57 -13,142 -7,146 28,22 113,-57 164,15 37,52 -17,130 -96,114 -32,-6 -75,-36 -97,-58 -181,-186 59,-373 180,-279 21,16 13,33 16,23 1,-1 2,3 3,5l22 -7c6,-14 21,-33 24,-55 4,-39 -3,-47 -9,-78 36,-32 70,-60 71,-132 0,-13 -12,-67 -18,-83 -25,-62 -43,-50 -59,-51 -13,-177 -242,-132 -317,-224 -47,-57 -18,-124 -27,-145 -23,1 -17,4 -29,29 -62,129 1,179 6,196 6,16 -40,93 29,135 22,-35 21,-67 59,-87 73,-36 225,79 141,160 -27,25 -24,12 -52,6l35 -24c92,-67 -113,-209 -172,-40 -10,28 -1,67 13,91 5,8 15,24 23,31 0,0 32,24 35,26 18,12 65,25 92,26 91,3 71,-13 107,-15z"/>
   <path class="fil2" d="M3201 5669l-7 -2c-13,-9 1,3 -4,-10 13,6 8,-3 11,12zm-317 -17c67,2 60,46 79,86l-37 1 -11 -2c0,-39 -9,-64 -31,-85zm324 -26l4 27c-17,-7 -11,9 -14,-13 -3,-18 8,-12 10,-14zm-341 121c-54,0 -84,-4 -119,-25 -53,-32 -48,-55 -61,-77 22,8 14,15 49,27 46,17 12,-1 57,3 11,1 44,12 54,20 16,12 22,26 20,52zm-109 -126c-42,-6 -21,-41 -7,-49 0,29 -2,26 7,49zm385 7c-6,62 -116,94 -140,95 -4,-36 -2,-52 -19,-76 -35,-51 -45,-16 -53,-51 49,0 69,5 87,38 13,9 6,-11 12,11l0 26 10 1 30 0 -1 -59c-37,-71 -35,-31 -60,-64 26,0 50,5 69,23 24,22 15,39 27,63 18,0 28,-2 38,-7zm0 0c-3,-80 -2,-73 -54,-115 32,-14 74,22 63,97 -4,27 3,10 -9,18zm-13 -336c119,68 124,-41 150,-65 10,14 6,22 6,58 0,52 -113,152 -184,35l28 -28zm77 -74l-4 17c-23,-6 -13,-3 -21,-18l25 1zm-393 37c27,-30 74,-36 94,-44 -18,28 -54,33 -70,64l-15 -14c-2,-2 -9,-6 -9,-6zm364 -84c2,2 10,-5 8,23 -2,31 -3,12 -8,18 -7,-16 -6,-26 0,-41zm29 47c4,-7 11,-21 15,-28 5,-7 6,-8 11,-12 10,-7 1,-1 12,-5 -3,11 -5,19 -12,28 -1,0 -12,11 -13,11 -10,7 1,1 -13,6zm-418 -77c20,-2 40,-2 59,-2 53,2 40,15 41,18l-53 8c-16,3 -26,8 -47,6l0 -30zm456 32c1,-14 0,-16 7,-24 11,-13 1,-4 17,-8 -4,8 -5,11 -11,20 -11,15 2,3 -13,12zm24 -32c4,-11 -8,-7 9,-11 -1,17 5,6 -9,11zm-80 1c1,-21 3,-21 21,-28 -7,18 -2,18 -21,28zm-443 -103c24,5 95,20 107,46l-111 -1 4 -45zm24 -94c17,14 58,38 76,68 -19,0 -90,-37 -91,-38 -3,-13 6,-20 15,-30zm252 46c-5,-20 15,-48 24,-63 19,6 33,19 52,27 -17,23 -2,15 -30,33 -21,13 1,7 -23,10 -28,3 -15,-1 -23,-7zm-95 -62c-5,-20 -4,-23 -4,-48l57 0c0,69 5,64 -47,102 -3,-23 -1,-35 -6,-54zm-112 -69c14,-13 0,-3 13,-12 13,19 58,82 44,111l-73 -83c13,-16 5,-5 16,-16zm605 -97c21,-3 27,3 50,9 16,4 7,1 22,4l19 7c1,-2 3,2 4,3 -29,3 -86,-8 -95,-23zm0 0c-28,-12 -16,-6 -35,-22 -15,-13 -19,-9 -24,-36 21,9 4,-5 21,15 27,34 27,22 38,43zm-63 -133c0,17 -1,24 3,41 11,50 5,21 -1,30 -4,-7 -12,-30 -13,-36 -8,-44 10,-35 11,-35zm-149 996c-5,-52 -1,-109 -40,-144 -60,-53 -152,-3 -209,34l-47 31c-2,1 -3,1 -5,2 -1,1 -2,1 -4,2 -1,1 -3,1 -4,2 -9,5 -1,0 -11,7 -3,3 -9,8 -13,11 -25,18 -60,44 -93,50 10,-16 30,-17 37,-43 8,-26 2,-55 -15,-68 -1,-1 -23,-12 -25,-12 -32,-10 -71,0 -98,23 -95,80 -38,270 131,271 128,1 279,-2 367,-104l13 -14c0,0 -6,37 46,8 52,-29 69,-61 135,-75 72,-16 144,44 226,45 95,1 162,9 187,-90 22,-84 -19,-181 -114,-121 -1,96 14,59 24,110 -45,5 -53,33 -89,-14l19 -47c-14,-28 -50,-44 -81,-50 -44,24 -56,29 -55,93 -40,-13 -79,-24 -87,-76 -13,-87 198,-126 267,-221 47,-66 38,-187 -6,-256l-47 -74c-7,-10 -11,-19 -15,-26 -20,-30 -52,-63 -59,-99 -3,-14 23,-12 35,-16 83,-24 152,-119 92,-200 -55,-76 -186,-37 -171,45 3,18 19,32 31,40 20,15 6,-13 16,18 -57,30 -109,-75 -18,-145 31,-23 76,-42 113,-25 0,0 19,16 19,16 1,1 15,20 16,20 12,20 13,40 31,48 54,-30 24,-107 18,-134 24,-15 25,-19 33,-51 11,-40 -1,-172 -54,-174 2,33 11,38 3,80 -8,38 -20,70 -54,92l-7 4c-9,6 -5,4 -15,10 -77,45 -178,25 -245,115 -18,26 -17,44 -26,71 -38,11 -38,8 -54,49 -20,53 -27,109 0,163 17,35 28,34 51,52 -2,31 -15,47 -8,88 4,23 25,45 46,58 1,-1 2,-5 3,-4l7 -14c1,-2 7,-16 8,-16 31,-48 190,-27 237,95 21,53 -8,131 -33,164 -40,53 -148,122 -203,60 -29,-32 -31,-74 -4,-105 58,-64 153,58 172,-45 5,-29 3,-70 -11,-92 -20,-30 -93,-69 -151,-46 -22,18 64,143 -83,65 -6,-3 -10,-6 -16,-9 -48,-31 -97,-41 -154,-44 3,-19 79,-232 -102,-174 -3,-35 -25,-89 -58,-99 -66,-19 -79,17 -111,44 -34,-41 -47,-59 -121,-55 -62,4 -71,58 -71,111 -99,1 -130,89 -48,141 -1,1 -3,1 -4,3 -2,5 -113,55 -12,120l-8 80c25,23 17,24 63,25 -1,31 -65,134 71,134 0,31 -7,51 15,67 19,14 51,17 78,11 23,-5 32,-23 38,-49 6,-34 -12,-42 -30,-58 79,-58 23,-35 146,-99 18,-9 24,-13 38,-23 11,-8 26,-19 38,-28 30,-22 73,-112 -39,-92l-8 47c0,1 -1,3 -2,4 -67,-17 -62,-74 14,-92 21,-4 58,-15 73,-6 -25,13 -9,-7 -29,18 15,28 59,28 34,86 -13,30 -48,69 -72,84l-56 41c-23,16 -49,33 -88,37 0,33 11,30 8,65 -2,30 -17,28 -14,58 33,-6 60,-38 94,-37 37,2 11,28 16,59 70,4 103,-44 155,20 11,14 29,51 36,72l-3 97z"/>
   <path class="fil2" d="M6606 8182c-6,58 -6,112 16,174 48,131 161,94 313,96 58,1 42,0 73,-29 43,-39 25,-35 47,-58l6 8c34,42 70,79 130,66 56,-13 146,-8 193,-26 159,-59 94,-248 72,-406 -5,-29 -10,-62 -15,-91 -10,-65 -17,-126 -27,-190 -9,-57 -17,-130 -27,-189l-26 -192c-41,-1 -122,20 -177,22 -10,37 53,423 60,514 2,24 4,14 7,37 4,31 6,62 11,94l14 86c11,97 -51,124 -98,107 -21,-8 -40,-38 -44,-60 -10,-58 -7,-150 -9,-204 0,-33 -8,-48 -8,-90 1,-73 -7,-128 -8,-200l-171 0c-2,132 0,266 0,398 0,67 13,136 -27,168 -26,20 -46,20 -77,5 -72,-36 -47,-106 -47,-245 0,-42 8,-42 8,-83l0 -199c1,-34 8,-47 8,-90 -1,-210 17,-201 -35,-212l-146 -10c-1,57 6,152 -2,202 -14,85 0,258 -8,300 -15,88 3,205 -6,297z"/>
   <path class="fil2" d="M8125 1355c3,-4 4,-3 8,-11 5,-10 0,0 5,-13 4,-9 5,-14 10,-25l106 -254c12,-32 38,-78 44,-106 198,103 141,133 36,346 -23,47 -47,90 -67,134l7 7c4,3 8,6 10,8l159 95c24,0 107,-154 118,-172 5,-7 14,-19 20,-28 9,-14 11,-20 19,-35 40,-71 93,-118 83,-211 -5,-41 -18,-56 -24,-78 61,-33 94,16 166,-99 26,-40 167,-246 172,-274 -19,-27 -76,-51 -110,-71 -29,-18 -96,-61 -125,-62 -17,18 -89,179 -128,239 -81,122 -191,29 -249,2l121 -297c8,-19 14,-25 19,-45 -6,-6 -2,-3 -11,-10 -13,-9 -1,-2 -16,-9 -11,-5 -19,-6 -31,-12 -47,-21 -142,-74 -180,-72l-113 290c-61,160 -148,396 -210,547 -3,5 -4,9 -7,16 -47,115 -78,108 125,187 18,8 22,12 43,13z"/>
   <path class="fil0" d="M5359 4377c15,-17 104,-90 126,-95 22,66 74,267 100,308l64 3c39,-63 50,-106 113,-180 27,-31 121,-131 163,-138 13,23 54,139 56,164 -125,39 -245,186 -281,285 -14,38 118,359 140,418l305 822c-18,18 -111,74 -135,77l-475 -1194c-22,7 -83,102 -171,165 -53,39 -165,99 -238,106 -16,-18 -70,-140 -78,-169 140,-59 217,-70 344,-191 79,-74 72,-57 33,-175 -16,-48 -61,-162 -66,-206zm284 42c-6,19 3,5 -9,22 -15,-6 -13,-12 -16,-32 -15,-42 -72,-252 -91,-278l-271 208c3,62 97,275 100,335 -61,41 -76,77 -191,134 -74,37 -156,61 -240,77 10,56 119,259 144,336 123,-14 253,-69 348,-137 24,-17 67,-60 89,-70l459 1157c23,-6 259,-142 288,-165 -4,-42 -453,-1205 -460,-1246 -7,-47 88,-153 109,-172 60,-57 98,-62 195,-87 3,-29 -105,-303 -123,-359 -71,14 -212,138 -266,199 -15,17 -52,72 -65,78z"/>
   <path class="fil2" d="M9013 1174c31,-63 98,-161 126,-213 31,15 54,35 83,52 20,13 25,13 42,25l34 26c0,42 4,39 -19,67 -40,51 -78,122 -133,122 -22,0 -113,-55 -133,-79zm-525 395l105 68c21,15 30,24 61,24l185 -265c23,-37 40,-57 61,-88 12,3 161,60 133,130l-215 303c-22,30 -49,41 25,97 28,21 53,55 87,60 22,-2 21,-24 71,-70 15,-15 12,-13 21,-27l181 -204c48,-67 30,-73 14,-156 72,2 146,-3 183,-56 8,-13 10,-14 20,-27l82 -111c57,-69 30,-195 1,-243 -23,-37 -169,-130 -221,-170l-170 -125c-17,-13 -35,-36 -62,-38 -79,125 -240,369 -316,499l-191 302c-20,34 -47,55 -55,97z"/>
   <path class="fil2" d="M4295 1089c15,-13 18,-11 31,-23 71,-64 84,-36 128,28l55 72c0,1 1,3 2,4l7 18c5,17 3,26 -10,47 -14,24 -36,32 -53,49 -34,35 -30,42 -60,48 -31,-53 -149,-154 -158,-194l58 -49zm326 840c28,-2 119,-106 143,-130 -12,-31 -33,-45 -46,-61 -10,-11 -8,-13 -18,-24l-138 -163c-13,-14 -5,-6 -15,-21 -20,-31 -41,-34 -50,-68 15,-18 10,-7 26,-20 10,-8 17,-18 26,-27 18,-20 31,-33 63,-41 33,-8 53,9 68,30 8,11 13,16 22,25l137 170c85,111 69,96 122,60 15,-10 28,-17 43,-29 13,-11 6,-7 20,-17l43 -29c42,-33 7,-26 -54,-123l-153 -208c-31,-36 -84,-38 -142,-39 -1,-25 12,-49 14,-71 12,-91 -2,-104 -38,-150l-105 -136c-52,-75 -197,-72 -248,-35l-405 340c-11,17 21,43 43,64l92 101c16,17 27,33 45,51 16,16 33,32 48,48 19,20 24,34 44,52l413 451z"/>
   <path class="fil2" d="M9888 3609l22 157c6,32 4,18 13,44 25,0 20,-2 39,-5 15,-4 26,-3 42,-5 25,-4 63,-12 92,-14 27,-3 60,-10 80,-14l444 -64 -143 251c-43,5 -92,-2 -134,2 -28,2 -26,7 -60,8 -88,1 -187,-7 -272,6 -22,3 -44,0 -68,3 -8,96 6,137 8,202 78,-17 192,4 262,-11 42,-9 317,-13 394,-13 95,0 72,-5 132,-8l204 -1c23,-3 27,-7 60,-8 1,-60 -3,-42 -6,-80 -1,-15 0,-33 0,-48 0,-32 1,-65 -1,-97 -38,-4 -188,14 -267,14 4,-21 34,-72 49,-95 8,-12 10,-17 17,-30l153 -263c15,-27 8,-21 4,-42 -6,-32 -10,-52 -11,-86 -18,-3 -407,75 -458,85l-525 101c-25,4 -45,6 -70,11z"/>
   <path class="fil2" d="M6527 290c0,-25 37,-60 59,-60l156 0c20,0 54,35 54,54 0,118 0,75 -9,165 -36,4 -86,2 -123,1 -44,0 -75,8 -120,8 -2,-44 -17,-116 -17,-168zm-125 787c32,8 156,-11 186,-15 3,-42 -1,-50 -6,-81 -4,-28 1,-66 -1,-96 -2,-32 -8,-47 -8,-90 0,-15 1,-33 0,-48 -2,-38 -11,-29 -4,-93 42,0 61,-9 107,-8 35,0 78,-4 112,2l0 407c63,1 76,15 186,8 3,-31 -2,-64 2,-93l14 -181c4,-28 1,-73 1,-102 0,-39 8,-45 8,-84 0,-98 8,-114 8,-192 0,-15 -1,-34 0,-48 2,-30 8,-19 8,-48 0,-84 14,-170 -35,-226 -72,-82 -187,-63 -310,-63 -52,0 -186,1 -233,13 -61,16 -114,30 -113,131l8 109c2,20 7,30 8,53l30 403c1,28 16,124 16,169 0,32 4,33 7,55 3,19 0,39 1,59 2,27 8,25 8,59z"/>
   <path class="fil2" d="M9086 7011l-59 48c-10,9 -10,12 -21,21l-88 67c-37,-43 -112,-133 -107,-190 3,-38 79,-88 115,-90 57,-3 69,46 113,88 17,17 33,38 47,56zm9 772c21,-4 65,-45 82,-58 112,-90 100,-42 27,-159l-148 -214c-14,-17 -18,-15 -27,-42 15,-19 165,-135 190,-149l55 52c9,11 5,9 15,21 11,15 22,24 35,37l89 97c12,14 9,12 18,24 8,10 64,76 76,76 56,-23 77,-74 126,-110 61,-47 58,-36 -30,-120l-595 -577c-27,-20 -46,-31 -84,-33 -57,-3 -71,5 -112,35l-92 70c-58,43 -113,73 -128,153 -15,76 2,127 42,186l412 639c14,23 33,54 49,72z"/>
   <path class="fil2" d="M9226 6264c18,25 46,37 74,63 13,12 16,12 28,21l54 41c5,3 49,39 49,40 -52,7 -200,7 -247,-3 -106,-24 -117,14 -144,39 -50,46 -113,49 -8,130 34,26 173,176 197,194 18,13 19,12 36,30 25,25 47,43 67,65 61,66 101,93 135,129 87,91 161,152 232,225 44,45 38,32 106,-38 97,-101 56,-83 -4,-141 -22,-22 -40,-42 -63,-64l-294 -277c-26,-28 -85,-70 -100,-98 78,-17 141,0 249,-16 78,-11 81,12 158,65l136 99c15,10 24,13 40,27 10,8 4,4 16,13l91 65c28,18 21,21 55,21l91 -118c10,-11 24,-28 28,-43l-29 -22c-11,-8 -22,-15 -32,-23 -21,-17 -35,-30 -62,-46l-638 -467c-20,-17 -41,-29 -64,-45 -39,-29 -36,-42 -112,67 -17,23 -40,46 -45,67z"/>
   <path class="fil2" d="M9675 6036c6,-13 15,-25 25,-41 5,-8 8,-12 12,-19 68,-119 103,-59 170,-32 19,7 30,14 45,21l31 17c1,1 3,4 4,3 1,-1 3,2 4,3 -3,28 -38,62 -60,98l-62 92c-13,-2 -43,-23 -49,-28 -12,-8 -17,-12 -25,-16 -61,-38 -70,-41 -95,-98zm-243 -12c0,120 83,136 173,208 21,17 34,24 54,37l262 188c21,14 28,23 52,39 8,5 17,10 26,16 19,11 12,8 28,20 37,30 193,144 219,148l87 -124c11,-20 30,-24 -27,-63 -5,-3 -5,-3 -11,-7l-291 -203c5,-23 42,-81 56,-103l30 -48c12,-18 18,-31 30,-48 36,2 63,29 93,45 32,17 66,31 97,47 36,19 153,91 189,94 17,-19 14,-24 26,-46 9,-16 17,-28 28,-50 26,-52 53,-74 47,-106l-649 -297c-25,-11 -45,-26 -75,-37 -10,-4 -13,-5 -22,-9 -14,-6 -11,-5 -21,-10l-29 -12c-108,-44 -185,-9 -244,85l-100 142c-11,20 -28,67 -28,94z"/>
   <path class="fil2" d="M2830 2905c17,18 95,41 119,49 18,6 41,13 63,21 21,8 42,12 61,20 -3,18 1,10 -19,25 -1,0 -3,1 -4,2l-317 248c-14,9 -15,5 -21,26l-10 40c-19,75 -10,51 109,81 39,10 93,20 129,28l749 168 39 -153c5,-20 12,-30 13,-50 -18,-17 -44,-19 -74,-26 -29,-8 -61,-14 -82,-19l-329 -80c-50,-11 -123,-36 -172,-41 3,-10 3,-6 11,-14l209 -157c18,-8 153,49 192,61l295 101 59 -168 -801 -304c-8,-3 -20,-7 -30,-11 -26,-10 -103,-42 -123,-43 -11,19 -65,173 -66,196z"/>
   <path class="fil2" d="M3420 1751l47 36c10,9 12,11 22,20l130 98c9,7 14,13 23,20l255 195c6,5 9,8 13,11 10,8 5,4 14,10l306 236c31,-22 34,-30 53,-56l272 -312c25,-28 32,-22 44,-63 -24,-14 -127,-130 -152,-126 -12,2 -173,188 -184,203 -12,17 -16,21 -32,36 -5,5 -8,8 -14,15l-17 19 -168 -138c18,-42 68,-77 93,-111 24,-31 167,-175 168,-189 0,-14 -115,-142 -129,-143 -19,-1 -88,88 -114,113 -6,7 -12,11 -18,18 -11,12 -9,12 -17,25 -22,32 -52,48 -73,78 -13,19 -59,70 -78,74 -15,-12 -19,-19 -34,-29l-72 -61c-11,-9 -29,-19 -40,-27 18,-39 46,-57 72,-86 18,-19 15,-25 34,-43l117 -124c71,-104 121,-63 13,-168 -16,-15 -50,-56 -72,-67 -8,6 -10,6 -17,15l-158 183c-27,42 -33,35 -59,68 -19,25 -38,40 -56,65 -10,14 -15,18 -28,32 -16,16 -16,22 -29,37 -10,11 -19,16 -31,29 -14,15 -13,22 -28,38 -11,12 -19,16 -30,30 -8,9 -22,27 -26,39z"/>
   <path class="fil2" d="M10570 2996c8,-6 0,-3 13,-7 12,-4 10,-1 20,-1l8 36c4,39 98,333 105,384l197 -54c12,-13 -87,-293 -92,-309l-100 -320c-56,-2 -635,195 -753,225 -47,12 -82,25 -127,38 -39,12 -78,29 -127,39 0,41 103,338 120,405 5,18 16,48 22,68l24 66 203 -49c-7,-28 -17,-59 -26,-87 -14,-42 -77,-243 -75,-273 27,0 121,-30 156,-41 15,-5 43,-13 60,-13 11,19 23,62 31,89l83 279 197 -55c-2,-25 -44,-156 -55,-189 -13,-39 -53,-152 -54,-184 9,-5 67,-18 82,-23 16,-4 31,-8 42,-11 14,-5 13,-5 24,-8 12,-3 12,-1 22,-5z"/>
   <path class="fil2" d="M7629 7545c0,-18 21,-32 34,-36l105 -29c62,-17 81,78 90,104 10,29 23,64 30,90 -17,4 -11,4 -27,9 -15,5 -13,4 -30,8l-157 46c-23,-30 -45,-141 -45,-192zm650 647c5,-38 -8,-49 -18,-79l-107 -280c-45,-128 -101,-260 -143,-383 -6,-17 -8,-20 -14,-36 -24,-73 -50,-134 -137,-150 -26,-5 -56,-9 -90,-8 -16,1 -65,8 -82,14 -99,31 -207,43 -241,142 -19,54 2,111 11,167l154 785c0,2 3,8 3,9l177 -43c25,-14 21,-22 8,-70l-77 -337c10,-6 230,-69 243,-69 12,16 13,28 19,48l111 338c25,0 157,-33 183,-48z"/>
   <path class="fil2" d="M5787 7707c-18,-4 -32,-9 -49,-17l-155 -56c19,-43 34,-85 51,-128 34,-82 55,-71 100,-58 119,34 60,111 53,259zm76 635c6,-42 13,-75 19,-117l117 -686c3,-20 7,-33 11,-52 26,-99 19,-152 -57,-204 -2,-1 -6,-4 -8,-5 -18,-12 -20,-11 -41,-18 -112,-34 -261,-122 -348,6 -38,57 -108,267 -142,345 -56,126 -129,341 -187,473 -19,45 -10,46 12,56 49,21 100,44 151,58 24,-43 109,-337 137,-390l163 56c15,7 32,11 50,17 5,66 -78,370 -76,405 27,21 69,20 101,31l98 25z"/>
   <path class="fil2" d="M5168 7470c-31,-9 -53,-24 -82,-35 -27,-11 -57,-20 -80,-36 -33,-24 -30,-34 -13,-65l167 -296c31,-59 62,-69 11,-103 -8,-6 -11,-7 -19,-12 -104,-71 -70,-78 -151,51l-50 83c-9,14 -8,11 -17,27l-97 159c-48,74 -74,109 -62,192 11,82 116,122 186,155 36,17 78,35 109,57 -9,16 -54,131 -66,143 -21,22 -49,21 -76,12 -30,-10 -291,-181 -327,-191 -91,131 -134,127 -54,170l312 175c106,57 176,141 282,36 53,-52 149,-330 199,-432 10,-18 15,-26 21,-44 27,-73 77,-169 107,-249l42 -95c7,-15 13,-31 17,-48 -12,-12 -15,-9 -38,-20 -37,-17 -91,-52 -123,-50 -10,14 -18,29 -27,48l-24 54c-27,52 -120,295 -147,314z"/>
   <path class="fil2" d="M2648 3662c6,13 10,18 39,21l141 18c18,4 3,4 27,6l556 78c56,29 55,134 22,180 -41,59 -98,32 -146,28 -21,-2 -46,0 -67,0 -32,-2 -25,-7 -54,-9 -21,-1 -45,2 -66,0 -30,-1 -25,-6 -54,-8 -21,-1 -45,2 -66,0 -30,-1 -22,-6 -54,-8 -21,-1 -45,2 -66,0 -17,-2 -32,-7 -54,-8 -88,-1 -90,-8 -186,-7 -3,22 -1,36 -2,58 -1,30 -6,23 -8,48 -3,34 0,83 0,118 94,16 240,-6 340,3 25,2 14,4 36,7 14,2 28,1 42,1l427 0c74,0 92,5 135,-42 55,-59 49,-139 49,-207 0,-15 0,-27 2,-42 20,-124 18,-223 -103,-275 -38,-17 -89,-25 -135,-34l-721 -139 -34 213z"/>
   <path class="fil2" d="M9249 1970l-140 124c3,24 9,30 22,45l108 138c7,9 5,7 11,14 5,6 4,6 10,13 73,83 46,89 138,132 16,7 16,7 31,11 1,1 20,5 21,5 67,14 131,-4 184,-46l95 -73c101,-76 150,-103 150,-221 0,-39 -86,-161 -114,-198 -39,-51 -61,-70 -22,-101 19,-15 87,-81 101,-81 74,0 70,39 138,121 5,7 10,10 17,19 6,8 8,11 13,18l44 57c11,14 19,24 29,38 37,52 45,24 69,4 145,-120 150,-89 92,-165l-230 -299c-61,-60 -192,-55 -242,-12 -11,10 -19,21 -30,30 -15,13 -16,7 -34,25 -61,61 -40,32 -65,56 -23,22 -43,39 -63,58 -46,43 -83,71 -96,142 -20,104 20,128 58,166 42,42 132,126 50,178 -33,21 -80,66 -123,60 -48,-8 -82,-77 -119,-124 -31,-40 -72,-119 -103,-134z"/>
   <path class="fil2" d="M3206 5906c-39,-4 -193,79 -196,94 2,31 38,89 52,117l175 341c18,34 53,62 96,74 115,34 198,-53 297,-110l44 -28c107,-62 141,-105 139,-220 -1,-87 -134,-150 -89,-241 13,-26 75,-44 108,-60 51,-25 88,12 105,47 136,274 68,275 239,165 23,-15 22,-12 37,-31l-110 -221c-35,-71 -64,-154 -159,-178 -48,-12 -103,5 -140,22 -37,16 -77,30 -118,50 -40,20 -76,34 -116,52 -55,23 -70,32 -91,77 -20,42 -12,90 9,129l77 175c38,73 8,56 -89,119 -82,52 -104,-44 -156,-149 -20,-40 -38,-75 -57,-113l-57 -111z"/>
   <path class="fil2" d="M4009 6523c20,-25 47,-42 71,-60l44 -28c76,-37 64,-42 121,13 20,19 35,37 26,62 -13,30 -27,42 -42,60l-93 105 -66 -76c-10,-13 -5,-9 -14,-22 -7,-8 -11,-9 -17,-19 -16,-20 -8,-19 -30,-35zm-573 192c4,20 90,147 115,149 19,1 53,-36 82,-55l240 -175 99 124c19,19 25,19 29,47 -21,20 -43,44 -62,64 -40,40 -159,170 -205,191 3,32 -3,13 13,36l14 16c24,26 78,105 97,120 37,-18 71,-74 100,-103 31,-31 82,-72 102,-103 24,-39 86,-88 123,-130l282 -295c40,-39 66,-83 49,-145 -8,-27 -19,-48 -34,-69l-49 -58c-44,-58 -90,-133 -170,-135 -113,-2 -124,34 -214,92l-471 328c-7,5 -9,8 -17,13 -23,18 -102,61 -123,88z"/>
   <path class="fil2" d="M5025 1378c1,28 94,152 101,157l150 -73c37,-19 187,-101 211,-125 108,-112 -11,-256 -57,-365 -21,-50 -41,-114 -86,-143 -8,-5 -27,-18 -40,-22 -40,-11 -93,3 -127,21l-7 5c-28,14 -194,92 -207,89 -21,-3 -76,-91 -87,-112 -15,-26 -4,-49 14,-64 31,-24 284,-149 312,-170 9,-6 4,-3 11,-9 -8,-29 -71,-188 -87,-203 -31,7 -225,126 -271,149l-81 44c-64,35 -142,72 -150,148 -13,119 20,130 86,229 1,1 2,3 3,4l116 160c55,47 136,68 196,47 17,-6 41,-23 53,-31 61,-38 117,-94 173,-52l17 23c33,71 96,120 -18,178l-225 115z"/>
   <path class="fil2" d="M7056 453c0,58 -5,85 22,139 74,147 227,57 304,117 49,38 28,62 20,117 -16,119 -105,90 -175,75 -42,-9 -165,-33 -202,-33 -4,67 -9,117 -9,188 59,11 365,69 421,50 160,-54 135,-147 190,-356 19,-71 19,-162 -47,-204 -26,-16 -44,-21 -78,-28 -35,-7 -58,-13 -92,-20 -33,-6 -53,-13 -88,-19 -78,-15 -67,-38 -57,-100 6,-37 -7,-59 24,-89 31,-31 100,-9 175,2l204 31c23,-29 21,-85 23,-123 4,-64 32,-89 -28,-97l-345 -51c-12,-2 -22,-2 -33,-4 -37,-5 -55,-14 -110,8 -18,7 -30,18 -42,30 -93,94 -44,116 -68,227l-9 140z"/>
   <path class="fil2" d="M8959 7803c0,-124 -51,-143 -86,-237 -9,-25 -15,-44 -33,-65 -25,2 -150,71 -178,88 2,36 66,99 67,130 2,38 -83,77 -111,96 -13,9 -15,10 -30,18 -9,6 -19,14 -35,20 -29,9 -51,6 -72,-15 -20,-19 -87,-175 -105,-209l-129 -292c-18,-80 55,-98 82,-123 70,-61 75,-42 114,12 4,6 12,16 18,25l18 29 156 -84 -57 -135c-24,-49 -52,-86 -105,-94 -107,-14 -197,57 -292,105 -104,53 -178,79 -159,226 7,47 24,62 41,103l47 103c9,25 19,42 32,70l154 340c6,12 12,23 17,32 8,15 8,24 16,37 51,79 185,116 281,65l265 -132c33,-16 84,-65 84,-113z"/>
   <path class="fil2" d="M3032 2387c-10,28 -9,7 -11,37l18 7c16,8 0,-4 13,9 25,0 215,55 242,62l242 62c38,10 85,23 119,31 42,10 85,24 125,34 21,5 42,10 60,16 18,6 38,12 60,17 147,35 124,59 177,-43 54,-106 64,-52 -147,-268l-273 -273c-32,-33 -29,-23 -49,-41 -45,-41 -206,-216 -237,-232l-15 21c-20,28 -104,151 -102,165 2,15 188,186 204,201 54,56 67,60 107,98 29,29 76,71 99,103 -73,-23 -510,-149 -565,-148 -6,33 -59,110 -67,142z"/>
   <path class="fil2" d="M5584 416c39,2 166,-54 209,-52l125 548c10,45 47,233 62,254l215 -47 -180 -811c12,0 216,-30 231,-39 10,-5 7,-4 13,-9 0,-32 -6,-67 -12,-99 -6,-32 -10,-67 -13,-102 -17,-3 -93,15 -111,20 -145,39 -393,88 -546,123 -6,1 -26,4 -30,5 -40,12 -11,51 2,98l35 111z"/>
   <path class="fil2" d="M10187 2124c13,38 31,57 54,89l53 91 -188 88c-33,16 -58,30 -91,46l-190 89c-36,14 -58,27 -93,43 -14,7 -28,15 -44,22 -53,25 -85,35 -146,71 1,36 79,177 91,194 22,-2 30,-9 48,-18l143 -68c32,-16 63,-27 95,-43 35,-18 60,-33 97,-46l381 -178c11,14 17,35 24,52l38 76c15,30 16,47 40,83 24,1 176,-58 197,-70 2,-40 -17,-54 -32,-80l-224 -425c-12,-21 -46,-112 -68,-116 -35,4 -10,1 -24,8l-161 92z"/>
   <path class="fil2" d="M4592 6811c-5,19 -37,49 -61,79l-160 195c-12,19 -19,23 -31,40l-128 155c-11,12 -15,22 -29,37l-95 119c9,18 2,7 16,18 1,1 3,2 4,2l108 79c70,56 51,26 108,-47 20,-26 40,-52 58,-80l42 -61c2,-2 4,-4 8,-9l291 -412c38,15 134,102 156,93 18,-17 51,-65 67,-87 20,-27 54,-56 63,-91 -16,-27 -84,-75 -113,-100l-169 -138c-12,-11 -10,-9 -24,-19 -56,-41 -83,-108 -138,-27 -79,114 -154,96 -61,173 10,9 14,10 24,18 17,14 59,49 64,63z"/>
   <path class="fil0" d="M6478 5712c-28,-23 -59,-41 -83,-61 -75,-63 -136,-140 -188,-227 -244,-414 46,-672 241,-218 63,147 85,288 93,467 15,0 170,-87 196,-98 -1,-19 -3,-32 -6,-49 -3,-19 -3,-29 -13,-46l-116 36c0,-117 -1,-181 -28,-289 -22,-83 -55,-158 -99,-222 -245,-363 -664,-94 -420,366 57,108 131,186 213,262 23,23 59,45 85,73 -14,27 -87,78 -113,108 5,22 28,60 40,70 34,-27 57,-60 94,-90l104 -82z"/>
   <path class="fil0" d="M5320 5665c22,11 4,-4 22,17l156 258c-21,13 -130,41 -160,40l-18 -315zm-133 636l258 -1 -1 -59c-97,-4 -117,-65 -100,-167 54,-12 165,-50 215,-50 15,22 42,46 52,80 14,54 -13,62 -34,88 9,24 31,54 42,72 26,-6 248,-113 265,-127l-43 -64c-61,1 -74,1 -111,-34 -25,-23 -43,-42 -69,-76 -120,-158 -214,-376 -331,-532 -21,1 -127,40 -142,52 0,44 17,140 24,192 15,127 45,379 20,499 -8,42 -9,38 -45,54l0 73z"/>
   <path class="fil2" d="M5262 315c0,30 68,203 84,241l44 120c8,27 14,37 23,61 8,24 14,41 23,61 9,23 12,39 20,58 44,103 101,285 148,399 9,22 2,37 64,15l97 -35c7,-2 17,-6 25,-10 13,-5 39,4 4,-77 -28,-64 -76,-221 -107,-300l-129 -358c-20,-61 -75,-196 -85,-242 -33,-5 -114,29 -164,46 -7,3 -13,5 -20,8 -3,1 -13,6 -13,6l-9 4c-1,1 -3,2 -5,3z"/>
   <path class="fil2" d="M9080 2056c23,-7 184,-175 216,-198l268 -248c48,-50 80,-70 98,-89 14,-15 27,-29 44,-46l53 -43c36,-30 57,-69 96,-93 -9,-32 -99,-109 -126,-129 -18,-15 -27,-31 -48,-43 -42,35 -24,27 -48,55 -18,21 -39,35 -54,53l-351 389c-35,38 -248,268 -251,281 -4,25 91,105 103,111z"/>
   <path class="fil2" d="M2924 2646c32,22 78,30 116,48l708 291c133,53 113,76 170,-61 9,-22 12,-17 12,-43 -1,-1 -3,-4 -4,-2l-401 -183c-23,-9 -40,-16 -59,-25l-116 -52c-82,-34 -312,-155 -358,-153 -13,27 -21,58 -33,87 -12,29 -30,63 -35,93z"/>
   <path class="fil3" d="M10493 5610c-14,-27 -8,-50 4,-75 29,-58 37,-14 34,-48 -27,7 -47,22 -52,53 -6,32 -4,69 11,90 30,39 93,69 138,73 0,-39 2,-57 20,-83 15,-20 23,-20 41,-30 2,-1 7,-4 8,-5l8 -5c-101,-23 -96,53 -109,79 -29,1 -37,4 -41,-25 -10,-74 52,-81 64,-108 -104,19 -76,48 -95,86l-31 -2z"/>
   <path class="fil0" d="M7225 6601c21,70 126,48 93,-65 -21,-68 -123,-36 -93,65z"/>
   <path class="fil0" d="M6624 6373c-50,31 -27,168 46,131 62,-31 15,-170 -46,-131z"/>
   <path class="fil4" d="M6328 6430l10 3c2,61 -8,221 4,269l74 -2c9,-33 3,-279 4,-351 1,-48 0,-38 -10,-45 3,50 7,360 -2,389l-59 0c-19,-63 14,-222 -11,-276l-10 13z"/>
   <path class="fil3" d="M2755 4975c1,1 72,38 91,38 -18,-30 -59,-54 -76,-68 -9,10 -18,17 -15,30z"/>
   <path class="fil3" d="M10791 5251l24 -20c-16,-19 -57,-38 -88,-36 16,22 40,29 64,56z"/>
   <path class="fil5" d="M3143 5628c12,-8 5,9 9,-18 11,-75 -31,-111 -63,-97 52,42 51,35 54,115z"/>
   <path class="fil3" d="M2814 5255c0,0 7,4 9,6l15 14c16,-31 52,-36 70,-64 -20,8 -67,14 -94,44z"/>
   <path class="fil6" d="M10446 5149c10,-29 0,-24 -15,-50 -13,-23 -2,-26 -27,-36 5,40 2,-11 27,62l6 14c6,10 -2,1 9,10z"/>
   <path class="fil7" d="M10384 5149c8,30 11,19 24,40 15,24 6,28 40,17 -13,-15 -1,-5 -19,-15 -45,-26 -12,-29 -45,-42z"/>
   <path class="fil8" d="M3420 4763c9,15 66,26 95,23 -1,-1 -3,-5 -4,-3l-19 -7c-15,-3 -6,0 -22,-4 -23,-6 -29,-12 -50,-9z"/>
   <path class="fil9" d="M10265 4684l10 0c0,-35 11,-36 9,-54 -3,-38 2,-5 -8,-18 -6,14 -13,55 -11,72z"/>
   <path class="fil9" d="M3420 4763c-11,-21 -11,-9 -38,-43 -17,-20 0,-6 -21,-15 5,27 9,23 24,36 19,16 7,10 35,22z"/>
   <path class="fil9" d="M3359 4701c6,-9 12,20 1,-30 -4,-17 -3,-24 -3,-41 -1,0 -19,-9 -11,35 1,6 9,29 13,36z"/>
   <path class="fil10" d="M3018 5634l8 42 48 0 1 -49c-2,-11 -3,-8 -6,-14l1 59 -30 0 -10 -1 0 -26c-6,-22 1,-2 -12,-11z"/>
   <path class="fil11" d="M10209 4739l19 -1c12,-17 21,-24 37,-36l0 -18 -13 13c-16,18 -34,28 -43,42z"/>
   <path class="fil5" d="M2758 5621c-9,-23 -7,-20 -7,-49 -14,8 -35,43 7,49z"/>
   <path class="fil12" d="M3207 5218c14,-5 3,1 13,-6 1,0 12,-11 13,-11 7,-9 9,-17 12,-28 -11,4 -2,-2 -12,5 -5,4 -6,5 -11,12 -4,7 -11,21 -15,28z"/>
   <path class="fil5" d="M10883 5596c21,-17 14,-25 0,-40 -1,3 -4,-4 -5,18 -1,24 2,18 5,22z"/>
   <path class="fil13" d="M10414 5668c9,9 -15,8 19,8l8 -17 0 -28c-19,9 -15,-8 -13,17l7 24 -21 -4z"/>
   <path class="fil14" d="M3178 5212c5,-6 6,13 8,-18 2,-28 -6,-21 -8,-23 -6,15 -7,25 0,41z"/>
   <path class="fil13" d="M3052 2440c-13,-13 3,-1 -13,-9l-18 -7c2,-30 1,-9 11,-37 -5,6 -9,6 -13,16 -7,16 -4,11 -2,27l35 10z"/>
   <path class="fil14" d="M10446 5149c-1,7 -4,10 -3,22 3,26 3,12 8,18 8,-50 7,-36 -5,-40z"/>
   <path class="fil15" d="M5643 4419c-15,6 -9,5 -16,3 -2,-18 -3,-5 -9,-13 3,20 1,26 16,32 12,-17 3,-3 9,-22z"/>
   <path class="fil9" d="M10384 5149c-1,-2 -2,-7 -2,-6l-5 -14c-16,-27 2,-6 -17,-12 9,27 -1,21 24,32z"/>
   <path class="fil16" d="M10611 3024l-8 -36c-10,0 -8,-3 -20,1 -13,4 -5,1 -13,7l31 -2c0,5 -1,14 1,18 7,18 -5,-1 9,12z"/>
   <path class="fil17" d="M3245 5173c15,-9 2,3 13,-12 6,-9 7,-12 11,-20 -16,4 -6,-5 -17,8 -7,8 -6,10 -7,24z"/>
   <path class="fil18" d="M3207 5218l-25 -1c8,15 -2,12 21,18l4 -17z"/>
   <path class="fil9" d="M3208 5626c-2,2 -13,-4 -10,14 3,22 -3,6 14,13l-4 -27z"/>
   <path class="fil17" d="M3189 5142c19,-10 14,-10 21,-28 -18,7 -20,7 -21,28z"/>
   <path class="fil19" d="M10257 4973l-22 7c-1,-2 -2,-6 -3,-5 -3,10 5,-7 -16,-23 9,20 1,20 18,34l23 -13z"/>
   <path class="fil20" d="M6620 3682c7,-5 9,-1 13,-7 5,23 -1,2 10,11l-7 -20c-20,8 -6,-4 -16,16z"/>
   <path class="fil20" d="M4877 4035l13 -5c7,19 -1,2 13,11l-11 -20c-18,7 -6,-2 -15,14z"/>
   <path class="fil21" d="M6758 3529c8,-4 8,-2 16,-7 0,10 -3,7 9,8l-14 -19 -11 18z"/>
   <path class="fil22" d="M10360 5117c-5,-16 -1,-12 -18,-20 6,18 1,14 18,20z"/>
   <path class="fil19" d="M3201 5669c-3,-15 2,-6 -11,-12 5,13 -9,1 4,10l7 2z"/>
   <path class="fil6" d="M3269 5141c14,-5 8,6 9,-11 -17,4 -5,0 -9,11z"/>
  </g>
 </g>
</svg>