<svg xmlns="http://www.w3.org/2000/svg" xmlns:xlink="http://www.w3.org/1999/xlink" version="1.1"
    id="Layer_1" x="0px" y="0px" viewBox="0 0 335 335" style="enable-background:new 0 0 335 335;"
    xml:space="preserve">
<style type="text/css">
	.st0{fill:#FF0000;}
</style>
<path class="st0" d="M279.04,294.38c-31.07,22.44-62.57,32.36-104.85,32.36c-69.9,0-119.52-51.35-119.52-113.48  c0-77.24,52.64-122.98,116.5-122.98c51.35,0,90.61,28.48,109.17,72.06L164.69,249.5c6.04,3.02,16.4,3.88,24.16,3.88  c23.3,0,38.4-9.92,52.21-21.57L279.04,294.38z M129.74,63.53l43.15-63.86h89.75l-73.79,63.86H129.74z M196.63,167.95  c-6.9-9.06-15.53-11.22-26.32-11.22c-20.71,0-34.95,19.42-34.95,38.83c0,9.49,1.73,12.08,3.45,15.97L196.63,167.95z"/>
</svg>